<mxfile host="Electron" modified="2023-08-23T11:49:46.150Z" agent="5.0 (Windows NT 10.0; Win64; x64) AppleWebKit/537.36 (KHTML, like Gecko) draw.io/20.3.0 Chrome/104.0.5112.114 Electron/20.1.3 Safari/537.36" etag="NQC0o0dzOWLmvM3Hqt5U" compressed="false" version="20.3.0" type="device">
  <diagram name="PE037A" id="_C8u3PmVirXrFsgWTk-G">
    <mxGraphModel dx="1408" dy="843" grid="1" gridSize="2" guides="1" tooltips="1" connect="1" arrows="1" fold="1" page="1" pageScale="1" pageWidth="1169" pageHeight="827" math="0" shadow="0">
      <root>
        <mxCell id="gCBXbEWG3YTmvdFgAPc0-0" />
        <mxCell id="gCBXbEWG3YTmvdFgAPc0-133" value="Label" style="" parent="gCBXbEWG3YTmvdFgAPc0-0" />
        <object label="%LabelLines%&amp;nbsp; &amp;nbsp; &amp;nbsp; &amp;nbsp; &amp;nbsp; &amp;nbsp;%LabelIndex%" placeholders="1" LabelLines="1" LabelIndex="A" id="gCBXbEWG3YTmvdFgAPc0-134">
          <mxCell style="rounded=0;whiteSpace=wrap;html=1;fillColor=none;strokeColor=#FF0000;fontColor=#FF0000;fontSize=10;align=left;noLabel=0;" parent="gCBXbEWG3YTmvdFgAPc0-133" vertex="1">
            <mxGeometry x="632" y="296" width="80" height="16" as="geometry" />
          </mxCell>
        </object>
        <object label="Symbol" Width="84" Height="24" UoM="mm" id="gCBXbEWG3YTmvdFgAPc0-137">
          <mxCell style="" parent="gCBXbEWG3YTmvdFgAPc0-0" />
        </object>
        <mxCell id="gCBXbEWG3YTmvdFgAPc0-139" value="" style="rounded=0;whiteSpace=wrap;html=1;fillColor=none;" parent="gCBXbEWG3YTmvdFgAPc0-137" vertex="1">
          <mxGeometry x="992" y="208" width="16" height="192" as="geometry" />
        </mxCell>
        <mxCell id="gCBXbEWG3YTmvdFgAPc0-140" value="" style="endArrow=none;html=1;rounded=0;entryX=-0.017;entryY=0.128;entryDx=0;entryDy=0;entryPerimeter=0;exitX=1;exitY=0.309;exitDx=0;exitDy=0;exitPerimeter=0;" parent="gCBXbEWG3YTmvdFgAPc0-137" edge="1">
          <mxGeometry width="50" height="50" relative="1" as="geometry">
            <mxPoint x="464" y="239.10400000000004" as="sourcePoint" />
            <mxPoint x="879.7280000000001" y="238.76800000000003" as="targetPoint" />
          </mxGeometry>
        </mxCell>
        <mxCell id="gCBXbEWG3YTmvdFgAPc0-141" value="" style="endArrow=none;html=1;rounded=0;entryX=-0.016;entryY=0.87;entryDx=0;entryDy=0;entryPerimeter=0;exitX=1.005;exitY=0.874;exitDx=0;exitDy=0;exitPerimeter=0;" parent="gCBXbEWG3YTmvdFgAPc0-137" edge="1">
          <mxGeometry width="50" height="50" relative="1" as="geometry">
            <mxPoint x="464.0799999999999" y="367.7439999999999" as="sourcePoint" />
            <mxPoint x="879.7440000000001" y="366.72" as="targetPoint" />
          </mxGeometry>
        </mxCell>
        <mxCell id="EobbvcSsf5eTC5hmWeWL-1" value="" style="rounded=0;whiteSpace=wrap;html=1;fillColor=none;" parent="gCBXbEWG3YTmvdFgAPc0-137" vertex="1">
          <mxGeometry x="976" y="208" width="16" height="192" as="geometry" />
        </mxCell>
        <mxCell id="EobbvcSsf5eTC5hmWeWL-4" value="" style="rounded=0;whiteSpace=wrap;html=1;fillColor=none;" parent="gCBXbEWG3YTmvdFgAPc0-137" vertex="1">
          <mxGeometry x="880" y="208" width="16" height="192" as="geometry" />
        </mxCell>
        <mxCell id="EobbvcSsf5eTC5hmWeWL-5" value="" style="rounded=0;whiteSpace=wrap;html=1;fillColor=none;" parent="gCBXbEWG3YTmvdFgAPc0-137" vertex="1">
          <mxGeometry x="896" y="208" width="16" height="192" as="geometry" />
        </mxCell>
        <mxCell id="EobbvcSsf5eTC5hmWeWL-6" value="" style="endArrow=none;html=1;rounded=0;startArrow=none;exitX=0.999;exitY=0.124;exitDx=0;exitDy=0;exitPerimeter=0;" parent="gCBXbEWG3YTmvdFgAPc0-137" edge="1">
          <mxGeometry width="50" height="50" relative="1" as="geometry">
            <mxPoint x="367.9839999999999" y="239.74399999999991" as="sourcePoint" />
            <mxPoint x="432" y="240" as="targetPoint" />
          </mxGeometry>
        </mxCell>
        <mxCell id="EobbvcSsf5eTC5hmWeWL-7" value="" style="endArrow=none;html=1;rounded=0;startArrow=none;exitX=1.023;exitY=0.875;exitDx=0;exitDy=0;exitPerimeter=0;" parent="gCBXbEWG3YTmvdFgAPc0-137" edge="1">
          <mxGeometry width="50" height="50" relative="1" as="geometry">
            <mxPoint x="368.36799999999994" y="368" as="sourcePoint" />
            <mxPoint x="432.0000000000001" y="368.26" as="targetPoint" />
          </mxGeometry>
        </mxCell>
        <mxCell id="_BKEYgJLWYhNnVfLumgn-1" value="" style="endArrow=none;html=1;rounded=0;exitX=1.035;exitY=0.124;exitDx=0;exitDy=0;exitPerimeter=0;entryX=-0.028;entryY=0.126;entryDx=0;entryDy=0;entryPerimeter=0;" parent="gCBXbEWG3YTmvdFgAPc0-137" edge="1">
          <mxGeometry width="50" height="50" relative="1" as="geometry">
            <mxPoint x="912.56" y="240.00400000000002" as="sourcePoint" />
            <mxPoint x="975.5520000000001" y="240.25600000000009" as="targetPoint" />
          </mxGeometry>
        </mxCell>
        <mxCell id="_BKEYgJLWYhNnVfLumgn-2" value="" style="endArrow=none;html=1;rounded=0;exitX=1.035;exitY=0.124;exitDx=0;exitDy=0;exitPerimeter=0;entryX=-0.028;entryY=0.876;entryDx=0;entryDy=0;entryPerimeter=0;" parent="gCBXbEWG3YTmvdFgAPc0-137" edge="1">
          <mxGeometry width="50" height="50" relative="1" as="geometry">
            <mxPoint x="912.56" y="368.0039999999999" as="sourcePoint" />
            <mxPoint x="975.5520000000001" y="368.2560000000001" as="targetPoint" />
          </mxGeometry>
        </mxCell>
        <mxCell id="sAy0yzGX21K1ILAoRCix-124" value="" style="rounded=0;whiteSpace=wrap;html=1;fillColor=none;" parent="gCBXbEWG3YTmvdFgAPc0-137" vertex="1">
          <mxGeometry x="432" y="208" width="16" height="192" as="geometry" />
        </mxCell>
        <mxCell id="sAy0yzGX21K1ILAoRCix-125" value="" style="rounded=0;whiteSpace=wrap;html=1;fillColor=none;" parent="gCBXbEWG3YTmvdFgAPc0-137" vertex="1">
          <mxGeometry x="448" y="208" width="16" height="192" as="geometry" />
        </mxCell>
        <mxCell id="sAy0yzGX21K1ILAoRCix-126" value="" style="rounded=0;whiteSpace=wrap;html=1;fillColor=none;" parent="gCBXbEWG3YTmvdFgAPc0-137" vertex="1">
          <mxGeometry x="336" y="208" width="16" height="192" as="geometry" />
        </mxCell>
        <mxCell id="sAy0yzGX21K1ILAoRCix-127" value="" style="rounded=0;whiteSpace=wrap;html=1;fillColor=none;" parent="gCBXbEWG3YTmvdFgAPc0-137" vertex="1">
          <mxGeometry x="352" y="208" width="16" height="192" as="geometry" />
        </mxCell>
        <mxCell id="gCBXbEWG3YTmvdFgAPc0-124" value="Connection" style="" parent="gCBXbEWG3YTmvdFgAPc0-0" />
        <object label="Connection" PipingConnector="Y" LabelConnector="N" SignalConnector="N" Direction="270" AuxiliaryConnector="N" id="gCBXbEWG3YTmvdFgAPc0-127">
          <mxCell style="vsdxID=1407;fillColor=none;gradientColor=none;shape=stencil(rVFbDsIgEDwNnyQU4glqvcfGblsilmZBS28vZGMsxg9j/JvZmX1kR5g2TLCg0CpE8hdcbR8nYY5CaztPSDZmJEwnTDt4wpH8be6ZL1CcBV39vUxI3KdKh1YbswPTEzuBzlmiVGmKau9zUKM+jlJJQrJBko8QrZ+rrQ5oRJnXyMHBWElhRVx25ebnw/5zVvPFWRm83jxY5zilvf4eSy5xpKZ7AA==);strokeColor=#00FF00;strokeWidth=1;points=[[0.5,0.5,0,0,0]];labelBackgroundColor=none;rounded=0;html=1;whiteSpace=wrap;aspect=fixed;noLabel=1;snapToPoint=1;container=0;fontSize=16;" parent="gCBXbEWG3YTmvdFgAPc0-124" vertex="1">
            <mxGeometry x="938" y="362" width="12" height="12" as="geometry" />
          </mxCell>
        </object>
        <object label="Connection" PipingConnector="Y" LabelConnector="N" SignalConnector="N" Direction="90" AuxiliaryConnector="N" id="gCBXbEWG3YTmvdFgAPc0-125">
          <mxCell style="vsdxID=1407;fillColor=none;gradientColor=none;shape=stencil(rVFbDsIgEDwNnyQU4glqvcfGblsilmZBS28vZGMsxg9j/JvZmX1kR5g2TLCg0CpE8hdcbR8nYY5CaztPSDZmJEwnTDt4wpH8be6ZL1CcBV39vUxI3KdKh1YbswPTEzuBzlmiVGmKau9zUKM+jlJJQrJBko8QrZ+rrQ5oRJnXyMHBWElhRVx25ebnw/5zVvPFWRm83jxY5zilvf4eSy5xpKZ7AA==);strokeColor=#00FF00;strokeWidth=1;points=[[0.5,0.5,0,0,0]];labelBackgroundColor=none;rounded=0;html=1;whiteSpace=wrap;aspect=fixed;noLabel=1;snapToPoint=1;container=0;fontSize=16;" parent="gCBXbEWG3YTmvdFgAPc0-124" vertex="1">
            <mxGeometry x="938" y="234" width="12" height="12" as="geometry" />
          </mxCell>
        </object>
        <object label="Connection" PipingConnector="Y" LabelConnector="N" SignalConnector="N" Direction="90" AuxiliaryConnector="N" id="gCBXbEWG3YTmvdFgAPc0-126">
          <mxCell style="vsdxID=1407;fillColor=none;gradientColor=none;shape=stencil(rVFbDsIgEDwNnyQU4glqvcfGblsilmZBS28vZGMsxg9j/JvZmX1kR5g2TLCg0CpE8hdcbR8nYY5CaztPSDZmJEwnTDt4wpH8be6ZL1CcBV39vUxI3KdKh1YbswPTEzuBzlmiVGmKau9zUKM+jlJJQrJBko8QrZ+rrQ5oRJnXyMHBWElhRVx25ebnw/5zVvPFWRm83jxY5zilvf4eSy5xpKZ7AA==);strokeColor=#00FF00;strokeWidth=1;points=[[0.5,0.5,0,0,0]];labelBackgroundColor=none;rounded=0;html=1;whiteSpace=wrap;aspect=fixed;noLabel=1;snapToPoint=1;container=0;fontSize=16;" parent="gCBXbEWG3YTmvdFgAPc0-124" vertex="1">
            <mxGeometry x="394" y="234" width="12" height="12" as="geometry" />
          </mxCell>
        </object>
        <object label="Connection" PipingConnector="Y" LabelConnector="N" SignalConnector="N" Direction="270" AuxiliaryConnector="N" id="gCBXbEWG3YTmvdFgAPc0-128">
          <mxCell style="vsdxID=1407;fillColor=none;gradientColor=none;shape=stencil(rVFbDsIgEDwNnyQU4glqvcfGblsilmZBS28vZGMsxg9j/JvZmX1kR5g2TLCg0CpE8hdcbR8nYY5CaztPSDZmJEwnTDt4wpH8be6ZL1CcBV39vUxI3KdKh1YbswPTEzuBzlmiVGmKau9zUKM+jlJJQrJBko8QrZ+rrQ5oRJnXyMHBWElhRVx25ebnw/5zVvPFWRm83jxY5zilvf4eSy5xpKZ7AA==);strokeColor=#00FF00;strokeWidth=1;points=[[0.5,0.5,0,0,0]];labelBackgroundColor=none;rounded=0;html=1;whiteSpace=wrap;aspect=fixed;noLabel=1;snapToPoint=1;container=0;fontSize=16;" parent="gCBXbEWG3YTmvdFgAPc0-124" vertex="1">
            <mxGeometry x="394" y="362" width="12" height="12" as="geometry" />
          </mxCell>
        </object>
        <mxCell id="gCBXbEWG3YTmvdFgAPc0-135" value="Origo" style="" parent="gCBXbEWG3YTmvdFgAPc0-0" />
        <object label="origo" id="gCBXbEWG3YTmvdFgAPc0-136">
          <mxCell style="vsdxID=1407;fillColor=none;gradientColor=none;shape=stencil(rVFbDsIgEDwNnyQU4glqvcfGblsilmZBS28vZGMsxg9j/JvZmX1kR5g2TLCg0CpE8hdcbR8nYY5CaztPSDZmJEwnTDt4wpH8be6ZL1CcBV39vUxI3KdKh1YbswPTEzuBzlmiVGmKau9zUKM+jlJJQrJBko8QrZ+rrQ5oRJnXyMHBWElhRVx25ebnw/5zVvPFWRm83jxY5zilvf4eSy5xpKZ7AA==);strokeColor=#ff0000;strokeWidth=1;points=[[0.5,0.5,0,0,0]];labelBackgroundColor=none;rounded=0;html=1;whiteSpace=wrap;aspect=fixed;noLabel=1;snapToPoint=1;" parent="gCBXbEWG3YTmvdFgAPc0-135" vertex="1">
            <mxGeometry x="668" y="300" width="7.874" height="7.87" as="geometry" />
          </mxCell>
        </object>
      </root>
    </mxGraphModel>
  </diagram>
</mxfile>
